<svg xmlns="http://www.w3.org/2000/svg" width="26" height="25" viewBox="0 0 26 25" fill="none">
<path d="M24.4014 7.37664C23.3881 5.12161 21.7289 3.21769 19.6336 1.90564C17.5383 0.593584 15.101 -0.0676768 12.6299 0.00547516C10.1588 0.0786271 7.7649 0.882906 5.75088 2.31661C3.73686 3.75031 2.19319 5.74904 1.31508 8.06007C0.436976 10.3711 0.263864 12.8906 0.817636 15.3C1.37141 17.7094 2.6272 19.9005 4.4262 21.5962C6.2252 23.2919 8.48663 24.4161 10.9245 24.8265C13.3624 25.237 15.8672 24.9153 18.1223 23.9021C19.6198 23.2295 20.9701 22.2685 22.0962 21.074C23.2222 19.8794 24.1019 18.4747 24.685 16.9401C25.2681 15.4055 25.5432 13.7711 25.4945 12.1302C25.4458 10.4892 25.0744 8.87399 24.4014 7.37664ZM15.3218 5.0385L15.3542 10.2097L11.5158 6.74794L15.3218 5.0385ZM10.7585 19.9234L10.7261 14.7496L14.5645 18.214L10.7585 19.9234ZM17.4468 16.9176L15.7348 17.6879L9.55182 12.1101L9.60378 20.443L7.87747 21.2224L7.90865 8.8159C8.60229 9.38875 9.41543 9.74597 10.2377 10.1344C11.5002 10.7319 12.3017 11.4164 12.9551 12.6738C13.4941 13.713 14.0254 14.6054 14.971 15.3237C15.7868 15.9421 16.7194 16.3629 17.6599 16.7526L17.4468 16.9176ZM18.1794 16.0966C17.1039 15.6511 15.9894 15.177 15.1152 14.3937C14.1735 13.5494 13.8306 12.3751 13.1395 11.358C11.9964 9.66933 9.90643 9.42902 8.43602 8.19889L8.63996 8.03912L10.3559 7.27013L16.5376 12.8479L16.4856 4.51631L18.2132 3.73693L18.1794 16.0966Z" fill="#3F4E74"/>
</svg>
