<svg width="16" height="16" viewBox="0 0 16 16" fill="none" xmlns="http://www.w3.org/2000/svg">
<rect width="16" height="16" fill="#1E1E1E"/>
<g id="Minhas tarefas ( Retraido )" clip-path="url(#clip0_0_1)">
<rect width="1440" height="1120" transform="translate(-30 -217)" fill="white"/>
<rect id="background" x="-30" y="-217" width="1440" height="1120" fill="#F6F6F6"/>
<g id="Sidebar">
<mask id="path-2-inside-1_0_1" fill="white">
<path d="M-30 -217H42V903H-30V-217Z"/>
</mask>
<path d="M-30 -217H42V903H-30V-217Z" fill="white"/>
<g id="Content">
<g id="Nav">
<g id="Navigation">
<g id="_Nav item dropdown base">
<g id="_Nav item base">
<g clip-path="url(#clip1_0_1)">
<rect x="-14" y="-12" width="42" height="40" rx="6" fill="white"/>
<g id="Content_2">
<g id="stack-bold-svgrepo-com 1">
<path id="Vector" d="M7 14.4514L6.94961 14.4221L0.624803 10.7326L7 14.4514ZM7 14.4514L7.05039 14.4221M7 14.4514L7.05039 14.4221M7.05039 14.4221L13.3752 10.7326C13.5456 10.6332 13.7485 10.6056 13.9393 10.6558C14.13 10.706 14.293 10.8299 14.3924 11.0002C14.4416 11.0846 14.4738 11.1778 14.4869 11.2746M7.05039 14.4221L14.4869 11.2746M13.3753 7.35754L13.3752 7.35757L7.05039 11.0471L7 11.0764L6.94961 11.0471L0.624803 7.3576L13.3753 7.35754ZM13.3753 7.35754C13.4597 7.30826 13.5529 7.27608 13.6497 7.26285C13.7465 7.24961 13.845 7.25559 13.9395 7.28042C14.034 7.30526 14.1227 7.34847 14.2005 7.4076C14.2783 7.46672 14.3436 7.54059 14.3929 7.62498C14.4421 7.70938 14.4742 7.80266 14.4874 7.89947C14.5006 7.99629 14.4945 8.09475 14.4696 8.18923C14.4447 8.28372 14.4015 8.37237 14.3423 8.45012C14.2831 8.52788 14.2092 8.59321 14.1248 8.6424L14.1247 8.64243L7.37475 12.5799L7.42514 12.6663L7.37475 12.5799C7.261 12.6463 7.13168 12.6812 7 12.6812C6.86832 12.6812 6.739 12.6463 6.62525 12.5799L6.57486 12.6663M13.3753 7.35754L6.57486 12.6663M6.57486 12.6663L6.62525 12.5799L-0.124696 8.64246L6.57486 12.6663ZM14.4869 11.2746C14.5001 11.3714 14.4941 11.4698 14.4693 11.5643M14.4869 11.2746L14.4693 11.5643M14.4693 11.5643C14.4444 11.6587 14.4012 11.7474 14.3421 11.8251M14.4693 11.5643L14.3421 11.8251M14.3421 11.8251C14.283 11.9029 14.2091 11.9682 14.1248 12.0174M14.3421 11.8251L14.1248 12.0174M14.1248 12.0174L7.37475 15.9549M14.1248 12.0174L7.37475 15.9549M7.37475 15.9549C7.261 16.0213 7.13168 16.0562 7 16.0562M7.37475 15.9549L7 16.0562M7 16.0562C6.86832 16.0562 6.739 16.0213 6.62525 15.9549M7 16.0562L6.62525 15.9549M6.62525 15.9549L-0.124696 12.0175M6.62525 15.9549L-0.124696 12.0175M-0.124696 12.0175L-0.12475 12.0174C-0.294974 11.918 -0.418746 11.755 -0.468861 11.5643C-0.518981 11.3736 -0.491327 11.1708 -0.391977 11.0005C-0.292627 10.8302 -0.129714 10.7063 0.0609513 10.6561C0.251597 10.6058 0.454386 10.6334 0.62475 10.7326L-0.124696 12.0175ZM-0.49375 4.625V4.62499C-0.493756 4.495 -0.459689 4.36728 -0.394945 4.25456C-0.330201 4.14185 -0.237042 4.04807 -0.124755 3.98257L-0.12475 3.98257L6.62525 0.045073L6.62525 0.0450709C6.739 -0.0212851 6.86832 -0.05625 7 -0.05625C7.13168 -0.05625 7.261 -0.0212851 7.37475 0.0450709L7.37475 0.045073L14.1247 3.98257C14.237 4.04807 14.3302 4.14185 14.3949 4.25457C14.4597 4.36729 14.4937 4.49501 14.4937 4.625C14.4937 4.75499 14.4597 4.88271 14.3949 4.99543C14.3302 5.10815 14.237 5.20193 14.1248 5.26742L14.1751 5.3538L14.1247 5.26743L7.37475 9.20492L7.42514 9.2913L7.37475 9.20493C7.261 9.27128 7.13168 9.30625 7 9.30625C6.86832 9.30625 6.739 9.27128 6.62525 9.20493L6.57486 9.2913L6.62525 9.20492L-0.12475 5.26743L-0.124755 5.26742C-0.237042 5.20193 -0.330201 5.10815 -0.394945 4.99543C-0.459689 4.88271 -0.493756 4.75499 -0.49375 4.625ZM1.87414 4.53862L1.72606 4.625L1.87414 4.71138L6.94961 7.67205L7 7.70145L7.05039 7.67205L12.1259 4.71138L12.2739 4.625L12.1259 4.53862L7.05039 1.57794L7 1.54855L6.94961 1.57794L1.87414 4.53862ZM0.0609513 7.28107C0.251597 7.23083 0.454386 7.25835 0.62475 7.35757L-0.12475 8.64243C-0.294974 8.54297 -0.418746 8.37999 -0.468861 8.18931C-0.518981 7.99862 -0.491327 7.79582 -0.391977 7.62551C-0.292627 7.4552 -0.129714 7.3313 0.0609513 7.28107Z" fill="#787486" stroke="white" stroke-width="0.2"/>
</g>
</g>
</g>
</g>
</g>
</g>
</g>
</g>
<path d="M41 -217V903H43V-217H41Z" fill="#A9A9A9" mask="url(#path-2-inside-1_0_1)"/>
</g>
</g>
<defs>
<clipPath id="clip0_0_1">
<rect width="1440" height="1120" fill="white" transform="translate(-30 -217)"/>
</clipPath>
<clipPath id="clip1_0_1">
<rect x="-14" y="-12" width="42" height="40" rx="6" fill="white"/>
</clipPath>
</defs>
</svg>
