<svg width="1218" height="21" viewBox="0 0 118 21" fill="none" xmlns="http://www.w3.org/2000/svg">
<g id="logo-nav 1" clip-path="url(#clip0_116_942)">
<g id="Grupo 2889">
<path id="Caminho 11441" d="M9.28704 13.9119C10.3185 14.6205 11.4381 15.1999 12.6193 15.6362L12.3556 15.8335L10.2344 16.7598L2.57714 10.0574L2.64149 20.0681L0.501953 21.0005L0.540447 6.09204C1.43006 6.73509 2.3994 7.26723 3.42571 7.67596C4.89127 8.26525 6.08711 9.34965 6.79187 10.7284C7.35709 11.9634 8.21145 13.0534 9.28704 13.9119Z" fill="#4A6979"/>
<path id="Caminho 11442" d="M13.3005 0.00268555L13.2602 14.8487C11.8851 14.3785 10.6016 13.6866 9.46377 12.8022C8.29748 11.7879 7.87347 10.3778 7.01858 9.15452C5.60065 7.12418 3.01299 6.83716 1.19116 5.35858L1.44452 5.16741L3.57027 4.24281L11.2276 10.9452L11.1632 0.934531L13.3005 0.00268555Z" fill="#4A6979"/>
<path id="Caminho 11443" d="M5.00586 3.6129L9.71697 1.55859L9.75662 7.77332L5.00586 3.6129Z" fill="#1C90E3"/>
<path id="Caminho 11444" d="M8.78298 17.3892L4.07187 19.4435L4.03223 13.2288L8.78298 17.3892Z" fill="#1C90E3"/>
</g>
</g>
<defs>
<clipPath id="clip0_116_942">
<rect width="117" height="21" fill="white" transform="translate(0.5)"/>
</clipPath>
</defs>
</svg>
