<svg xmlns="http://www.w3.org/2000/svg" width="24" height="25" viewBox="0 0 24 25" fill="none">
  <path fill-rule="evenodd" clip-rule="evenodd" d="M10 6.50077C8.93913 6.50077 7.92172 6.92219 7.17157 7.67234C6.42143 8.42248 6 9.4399 6 10.5008C6 11.5616 6.42143 12.579 7.17157 13.3292C7.92172 14.0793 8.93913 14.5008 10 14.5008C11.0609 14.5008 12.0783 14.0793 12.8284 13.3292C13.5786 12.579 14 11.5616 14 10.5008C14 9.4399 13.5786 8.42248 12.8284 7.67234C12.0783 6.92219 11.0609 6.50077 10 6.50077ZM4 10.5008C3.99988 9.55647 4.22264 8.62548 4.65017 7.78351C5.0777 6.94154 5.69792 6.21236 6.4604 5.65529C7.22287 5.09822 8.10606 4.72898 9.03815 4.5776C9.97023 4.42622 10.9249 4.49698 11.8245 4.78412C12.724 5.07126 13.5432 5.56667 14.2152 6.23006C14.8872 6.89346 15.3931 7.7061 15.6919 8.6019C15.9906 9.4977 16.0737 10.4514 15.9343 11.3853C15.795 12.3193 15.4372 13.2072 14.89 13.9768L17.707 16.7938C17.8892 16.9824 17.99 17.235 17.9877 17.4972C17.9854 17.7594 17.8802 18.0102 17.6948 18.1956C17.5094 18.381 17.2586 18.4862 16.9964 18.4884C16.7342 18.4907 16.4816 18.3899 16.293 18.2078L13.477 15.3918C12.5794 16.03 11.5233 16.4089 10.4247 16.4869C9.326 16.5648 8.22707 16.3389 7.2483 15.8337C6.26953 15.3286 5.44869 14.5638 4.87572 13.6231C4.30276 12.6824 3.99979 11.6022 4 10.5008Z" fill="#B0BABF"/>
</svg>