<svg xmlns="http://www.w3.org/2000/svg" width="13" height="12" viewBox="0 0 13 12" fill="none">
  <g clip-path="url(#clip0_14_7401)">
    <path d="M12.0774 0.722168H0.922689C0.689009 0.722168 0.5 0.911275 0.5 1.14486V2.85495C0.5 3.08853 0.689009 3.27769 0.922689 3.27769H12.0774C12.311 3.27769 12.5 3.08853 12.5 2.85495V1.14486C12.5 0.911275 12.311 0.722168 12.0774 0.722168Z" fill="#2A303C"/>
    <path d="M12.0774 4.72217H0.922689C0.689009 4.72217 0.5 4.91123 0.5 5.14481V6.85495C0.5 7.08858 0.689009 7.27764 0.922689 7.27764H12.0774C12.311 7.27764 12.5 7.08858 12.5 6.85495V5.14481C12.5 4.91123 12.311 4.72217 12.0774 4.72217Z" fill="#2A303C"/>
    <path d="M6.0773 8.72217H0.922689C0.689009 8.72217 0.5 8.91125 0.5 9.14481V10.8549C0.5 11.0886 0.689009 11.2776 0.922689 11.2776H6.0773C6.31098 11.2776 6.49999 11.0886 6.49999 10.8549V9.14481C6.50001 8.91125 6.311 8.72217 6.0773 8.72217Z" fill="#2A303C"/>
  </g>
  <defs>
    <clipPath id="clip0_14_7401">
      <rect width="12" height="12" fill="white" transform="translate(0.5)"/>
    </clipPath>
  </defs>
</svg>