<svg xmlns="http://www.w3.org/2000/svg" width="17" height="17" viewBox="0 0 17 17" fill="none">
  <g opacity="0.75">
    <path d="M12.6676 2.16553C13.8229 2.16553 14.7671 3.06974 14.8308 4.20917L14.8343 4.33213L14.8339 12.3347C14.8337 13.5312 13.8637 14.5013 12.6671 14.5013H4.6667C3.51134 14.5013 2.56717 13.5971 2.50343 12.4576L2.5 12.3347L2.5004 4.33214C2.50054 3.13558 3.47055 2.16553 4.6671 2.16553H12.6676ZM8.16667 6.83219L3.5 6.83286L3.50007 12.3346L3.50485 12.4418C3.55892 13.0359 4.05844 13.5013 4.66667 13.5013L8.16667 13.5009V6.83219ZM13.8333 10.8322L9.16667 10.8329V13.5009L12.6671 13.5013C13.3114 13.5013 13.8338 12.9789 13.8339 12.3346L13.8333 10.8322ZM12.6676 3.16553L9.16667 3.16486V9.83286L13.8333 9.83219L13.8342 4.33217L13.8294 4.22502C13.7753 3.63089 13.2758 3.16553 12.6676 3.16553ZM8.16667 3.16486L4.66715 3.16553L4.57149 3.1694C3.9719 3.21811 3.50047 3.72012 3.5004 4.33221L3.5 5.83286L8.16667 5.83219V3.16486Z" fill="#1458DD" stroke="#1458DD" stroke-width="0.3"/>
  </g>
</svg>